<svg width="684" height="598" viewBox="0 0 684 598" fill="none" xmlns="http://www.w3.org/2000/svg">
<path d="M640.667 256.333H134.64L289.52 70.3065C296.762 61.5933 300.246 50.36 299.206 39.0778C298.166 27.7956 292.686 17.3887 283.973 10.1465C275.26 2.90437 264.027 -0.579873 252.744 0.460329C241.462 1.50053 231.055 6.97996 223.813 15.6932L10.4798 271.693C9.04455 273.729 7.76109 275.869 6.63983 278.093C6.63983 280.227 6.63983 281.507 3.65317 283.64C1.71924 288.532 0.706658 293.74 0.666504 299C0.706658 304.26 1.71924 309.468 3.65317 314.36C3.65317 316.493 3.65316 317.773 6.63983 319.907C7.76109 322.131 9.04455 324.27 10.4798 326.307L223.813 582.307C227.825 587.123 232.848 590.996 238.527 593.651C244.205 596.306 250.398 597.677 256.666 597.667C266.636 597.686 276.297 594.214 283.973 587.853C288.294 584.271 291.865 579.872 294.482 574.908C297.1 569.944 298.713 564.512 299.228 558.924C299.743 553.336 299.151 547.701 297.485 542.341C295.819 536.982 293.112 532.005 289.52 527.693L134.64 341.667H640.667C651.982 341.667 662.835 337.171 670.836 329.17C678.838 321.168 683.333 310.316 683.333 299C683.333 287.684 678.838 276.832 670.836 268.83C662.835 260.828 651.982 256.333 640.667 256.333Z" fill="white"/>
</svg>
